<?xml version="1.0" encoding="UTF-8" standalone="no"?>
<svg
   xmlns:dc="http://purl.org/dc/elements/1.1/"
   xmlns:cc="http://creativecommons.org/ns#"
   xmlns:rdf="http://www.w3.org/1999/02/22-rdf-syntax-ns#"
   xmlns:svg="http://www.w3.org/2000/svg"
   xmlns="http://www.w3.org/2000/svg"
   width="47.825985mm"
   height="47.825985mm"
   viewBox="0 0 169.46215 169.46215"
   id="svg4340"
   version="1.1">
  <defs
     id="defs4342" />
  <metadata
     id="metadata4345">
    <rdf:RDF>
      <cc:Work
         rdf:about="">
        <dc:format>image/svg+xml</dc:format>
        <dc:type
           rdf:resource="http://purl.org/dc/dcmitype/StillImage" />
        <dc:title></dc:title>
      </cc:Work>
    </rdf:RDF>
  </metadata>
  <path
     id="path6046"
     d="m 77.134286,143.46369 c 26.461044,-1.80487 48.237604,-20.62501 54.484404,-45.609938 l 0,51.238208 c 0,0 -3.7095,-15.15315 -19.92678,-10.89594 -10.09326,2.64773 -17.725904,7.03477 -34.557624,5.27004 l 0,-0.002 m 54.484404,-75.029127 0,-51.245296 c 0,0 -3.7095,15.161988 -19.92678,10.903012 -10.09326,-2.64711 -17.725904,-7.035943 -34.557624,-5.271786 l -0.002,0.0021 C 103.5951,24.626046 125.37223,43.450334 131.61846,68.433474 M 42.558098,83.142707 c 0,-25.457095 17.891735,-46.73255 41.787738,-51.944107 -3.66642,-0.799159 -7.47801,-1.228246 -11.38526,-1.228246 -29.367833,0 -53.169961,23.806282 -53.169961,53.172353 0,29.366653 23.802128,53.172333 53.169961,53.172333 3.90725,0 7.71884,-0.42495 11.38526,-1.22588 C 60.449833,129.87582 42.558098,108.60038 42.558098,83.142707"
     style="fill:#bf9c66" />
</svg>
